<?xml version="1.0" encoding="iso-8859-1"?>
<!-- Generator: Adobe Illustrator 16.0.0, SVG Export Plug-In . SVG Version: 6.00 Build 0)  -->
<!DOCTYPE svg PUBLIC "-//W3C//DTD SVG 1.1//EN" "http://www.w3.org/Graphics/SVG/1.1/DTD/svg11.dtd">
<svg version="1.1" id="Capa_1" xmlns="http://www.w3.org/2000/svg" xmlns:xlink="http://www.w3.org/1999/xlink" x="0px" y="0px"
	 width="30.527px" height="30.527px" viewBox="0 0 30.527 30.527" style="enable-background:new 0 0 30.527 30.527;"
	 xml:space="preserve">
<g>
	<g>
		<path d="M4.222,0v30.527h22.084V0H4.222z M25.017,29.238H5.511V1.289h19.506V29.238z"/>
		<rect x="8.574" y="15.654" width="14.024" height="1.317"/>
		<rect x="8.574" y="18.718" width="14.024" height="1.318"/>
		<rect x="8.574" y="21.779" width="14.024" height="1.318"/>
		<rect x="8.574" y="24.602" width="14.024" height="1.317"/>
		<path d="M16.308,9.738l0.205,0.692h1.549l-1.77-4.855h-1.461l-1.787,4.855h1.502l0.218-0.692H16.308z M15.56,7.201h0.014
			l0.435,1.497h-0.917L15.56,7.201z"/>
		<polygon points="19.532,6.998 19.532,8.194 18.335,8.194 18.335,9.234 19.532,9.234 19.532,10.431 20.573,10.431 20.573,9.234 
			21.769,9.234 21.769,8.194 20.573,8.194 20.573,6.998 		"/>
		<path d="M17.215,14.214c3.348,0,6.071-2.158,6.071-5.505S20.562,2.64,17.215,2.64c-1.024,0-2.596,0.496-2.837,0.708
			c-0.243,0.214-0.166,0.701,0.283,0.491c0.451-0.21,1.631-0.633,2.554-0.633c3.034,0,5.505,2.469,5.505,5.503
			s-2.471,4.938-5.505,4.938s-5.503-1.903-5.503-4.938c0-0.962,0.506-2.462,0.686-2.653c0.18-0.193-0.274-0.683-0.456-0.341
			c-0.179,0.341-0.796,1.905-0.796,2.994C11.146,12.056,13.868,14.214,17.215,14.214z"/>
	</g>
</g>
<g>
</g>
<g>
</g>
<g>
</g>
<g>
</g>
<g>
</g>
<g>
</g>
<g>
</g>
<g>
</g>
<g>
</g>
<g>
</g>
<g>
</g>
<g>
</g>
<g>
</g>
<g>
</g>
<g>
</g>
</svg>
