<?xml version="1.0" encoding="iso-8859-1"?>
<!-- Generator: Adobe Illustrator 18.1.1, SVG Export Plug-In . SVG Version: 6.00 Build 0)  -->
<svg version="1.1" id="Capa_1" xmlns="http://www.w3.org/2000/svg" xmlns:xlink="http://www.w3.org/1999/xlink" x="0px" y="0px"
	 viewBox="0 0 345.64 345.64" style="enable-background:new 0 0 345.64 345.64;" xml:space="preserve">
<g>
	<g id="Layer_5_16_">
		<g>
			<ellipse cx="205.489" cy="102.933" rx="43.48" ry="43.031"/>
			<path d="M304.913,40.734c-26.26-26.27-61.23-40.731-98.473-40.731c-37.252,0-72.223,14.461-98.483,40.731
				c-22.399,22.399-36.158,50.485-39.791,81.214c-3.52,29.852,3.169,60.673,18.848,86.809c2.147,3.592,2.549,9.352-1.62,13.521
				l-73.69,73.689c-11.437,11.448-16.886,29.16-5.151,40.886l2.24,2.24c4.274,4.284,9.766,6.544,15.876,6.544
				c8.463,0,17.578-4.263,25-11.695l73.389-73.379l0.155-0.155c2.168-2.178,4.882-3.324,7.844-3.324c3.087,0,5.409,1.29,5.853,1.559
				c5.151,3.097,10.467,5.832,15.928,8.216c2.384,1.042,4.799,2.023,7.246,2.931c3.634,1.353,7.318,2.54,11.045,3.582
				c11.922,3.324,24.267,5.038,36.675,5.038c14.533,0,28.756-2.302,42.279-6.75c2.683-0.878,5.336-1.848,7.958-2.901
				c9.455-3.778,18.497-8.629,26.991-14.492c7.03-4.841,13.688-10.384,19.881-16.577C359.216,183.385,359.216,95.028,304.913,40.734
				z M223.161,228.45l-15.104,13.89c-1.414,1.299-3.727,1.299-5.14,0l-15.104-13.89c-1.414-1.3-2.248-3.9-1.854-5.779
				c0,0,5.688-28.258,7.878-37.611c0.346-1.476-0.147-8.372-0.147-8.372c-0.151-1.914,1.299-3.479,3.218-3.479h17.22
				c1.919,0,3.367,1.565,3.218,3.479c0,0-0.579,6.813-0.206,8.372c2.235,9.343,7.879,37.611,7.879,37.611
				C225.41,224.55,224.575,227.15,223.161,228.45z M285.548,218.326c-2.416,2.417-4.931,4.715-7.527,6.875
				c-0.665,0.553-1.84,1.259-2.795-0.756l-18.868-57.379c-2.58-6.947-9.548-10.869-16.64-10.869c-3.541,0-3.87,0.093-5.977,0.093
				h-63.295c-8.092,0-14.048,3.829-16.629,10.776l-18.251,55.495c-0.719,2.398-2.321,1.283-3.053,0.64
				c-1.775-1.561-3.505-3.187-5.193-4.875c-43.621-43.622-43.621-114.606,0-158.227c21.099-21.098,49.195-32.721,79.119-32.721
				c29.914,0,58.01,11.623,79.108,32.721c21.099,21.098,32.721,49.195,32.721,79.108
				C318.269,169.13,306.647,197.228,285.548,218.326z"/>
		</g>
	</g>
</g>
<g>
</g>
<g>
</g>
<g>
</g>
<g>
</g>
<g>
</g>
<g>
</g>
<g>
</g>
<g>
</g>
<g>
</g>
<g>
</g>
<g>
</g>
<g>
</g>
<g>
</g>
<g>
</g>
<g>
</g>
</svg>
