<?xml version="1.0" encoding="iso-8859-1"?>
<!-- Generator: Adobe Illustrator 16.0.0, SVG Export Plug-In . SVG Version: 6.00 Build 0)  -->
<!DOCTYPE svg PUBLIC "-//W3C//DTD SVG 1.1//EN" "http://www.w3.org/Graphics/SVG/1.1/DTD/svg11.dtd">
<svg version="1.1" id="Capa_1" xmlns="http://www.w3.org/2000/svg" xmlns:xlink="http://www.w3.org/1999/xlink" x="0px" y="0px"
	 width="32.75px" height="32.75px" viewBox="0 0 32.75 32.75" style="enable-background:new 0 0 32.75 32.75;" xml:space="preserve"
	>
<g>
	<g>
		<path d="M9.915,25.666h3.36v-14.16h-2.36c-0.04,0.227-0.117,0.47-0.23,0.73c-0.113,0.26-0.29,0.5-0.53,0.72
			c-0.24,0.22-0.563,0.403-0.97,0.55c-0.407,0.147-0.93,0.22-1.57,0.22h-0.42v2.12h2.72V25.666z"/>
		<path d="M21.395,25.945c1.573,0,2.74-0.394,3.5-1.18c0.76-0.787,1.141-2.08,1.141-3.881c0-1.72-0.297-2.97-0.891-3.75
			c-0.593-0.779-1.537-1.17-2.83-1.17c-0.227,0-0.457,0.023-0.689,0.07c-0.232,0.047-0.457,0.12-0.67,0.22
			c-0.213,0.101-0.407,0.22-0.58,0.36c-0.173,0.14-0.307,0.297-0.4,0.47l-0.039-0.04l0.16-2.66h5.359v-2.6h-7.939l-0.44,7.66h3.12
			c0.053-0.413,0.197-0.703,0.43-0.87s0.503-0.25,0.811-0.25c0.439,0,0.756,0.2,0.949,0.6c0.193,0.4,0.29,1.021,0.29,1.86
			c0,0.974-0.083,1.724-0.25,2.25c-0.167,0.525-0.517,0.79-1.05,0.79c-0.24,0-0.439-0.05-0.6-0.15
			c-0.16-0.1-0.283-0.231-0.371-0.399c-0.086-0.166-0.146-0.355-0.18-0.569c-0.033-0.213-0.05-0.44-0.05-0.681v-0.521h-3.239v0.521
			c0,1.254,0.362,2.221,1.09,2.899C18.751,25.605,19.875,25.945,21.395,25.945z"/>
		<path d="M17.01,5.502c-0.048,0.036-0.083,0.079-0.104,0.129c-0.021,0.05-0.033,0.116-0.033,0.2c0,0.118,0.021,0.21,0.066,0.278
			c0.043,0.067,0.107,0.102,0.192,0.102c0.095,0,0.179-0.029,0.25-0.088c0.072-0.059,0.106-0.165,0.106-0.319
			c0-0.124,0.002-0.227,0.004-0.308c0.001-0.081,0.002-0.152,0.002-0.215c-0.139,0.073-0.245,0.12-0.316,0.141
			C17.105,5.442,17.05,5.469,17.01,5.502z"/>
		<path d="M29.375,1.25h-1.123c0.029-0.093,0.059-0.186,0.059-0.289c0-0.53-0.432-0.961-0.963-0.961s-0.961,0.431-0.961,0.961
			c0,0.104,0.028,0.196,0.059,0.289h-3.68c0.029-0.093,0.059-0.186,0.059-0.289c0-0.53-0.432-0.961-0.963-0.961
			C21.332,0,20.9,0.431,20.9,0.961c0,0.104,0.029,0.196,0.06,0.289h-3.681c0.029-0.093,0.058-0.186,0.058-0.289
			c0-0.53-0.43-0.961-0.961-0.961c-0.531,0-0.961,0.431-0.961,0.961c0,0.104,0.028,0.196,0.058,0.289h-3.681
			c0.029-0.093,0.059-0.186,0.059-0.289C11.851,0.431,11.42,0,10.89,0c-0.531,0-0.962,0.431-0.962,0.961
			c0,0.104,0.028,0.196,0.058,0.289h-3.68c0.03-0.093,0.059-0.186,0.059-0.289C6.365,0.431,5.935,0,5.404,0
			C4.873,0,4.442,0.431,4.442,0.961c0,0.104,0.028,0.196,0.058,0.289H3.375c-1.518,0-2.75,1.233-2.75,2.75v26
			c0,1.518,1.232,2.75,2.75,2.75H26.27l5.855-5.855V4C32.125,2.483,30.893,1.25,29.375,1.25z M19.497,3.774l0.362,2.085h0.012
			l0.347-2.085h0.892l-0.803,2.998c-0.052,0.19-0.105,0.347-0.162,0.47s-0.125,0.219-0.209,0.289
			c-0.082,0.069-0.181,0.118-0.297,0.146c-0.117,0.028-0.262,0.041-0.434,0.041h-0.204c-0.028,0-0.06-0.001-0.091-0.003
			s-0.061-0.004-0.09-0.008V7.08c0.035,0.007,0.072,0.013,0.109,0.017c0.037,0.004,0.073,0.005,0.11,0.005
			c0.084,0,0.161-0.022,0.231-0.068c0.069-0.046,0.117-0.133,0.143-0.261l-0.841-2.998L19.497,3.774L19.497,3.774z M17.428,4.36
			c-0.044-0.053-0.115-0.08-0.214-0.08c-0.125,0-0.209,0.036-0.253,0.107c-0.044,0.071-0.068,0.172-0.072,0.3h-0.792
			c0.003-0.209,0.034-0.376,0.091-0.501c0.057-0.124,0.138-0.223,0.245-0.297c0.106-0.073,0.225-0.123,0.355-0.151
			c0.13-0.027,0.289-0.041,0.476-0.041c0.367,0,0.635,0.067,0.803,0.201c0.168,0.134,0.254,0.36,0.254,0.679v1.529
			c0,0.113,0.004,0.233,0.014,0.357c0.009,0.125,0.04,0.22,0.091,0.286h-0.858c-0.019-0.052-0.029-0.106-0.035-0.165
			s-0.01-0.117-0.014-0.176h-0.013c-0.063,0.132-0.155,0.234-0.28,0.308c-0.125,0.074-0.265,0.11-0.418,0.11
			c-0.253,0-0.449-0.07-0.585-0.212c-0.138-0.141-0.207-0.373-0.207-0.695c0-0.177,0.033-0.331,0.099-0.465
			c0.066-0.134,0.154-0.232,0.264-0.295c0.11-0.062,0.239-0.109,0.389-0.143c0.148-0.034,0.284-0.066,0.409-0.099
			c0.066-0.019,0.12-0.036,0.162-0.053c0.042-0.017,0.075-0.036,0.099-0.062c0.024-0.022,0.039-0.054,0.047-0.091
			c0.008-0.036,0.012-0.082,0.012-0.138C17.494,4.486,17.473,4.413,17.428,4.36z M11.901,2.823h1.353l0.484,2.579h0.011l0.467-2.579
			h1.336V6.75h-0.857V3.692h-0.011l-0.6,3.058h-0.715l-0.633-3.058h-0.011V6.75H11.9L11.901,2.823L11.901,2.823z M30.625,26.273
			l-0.311,0.311h-2.355c-1.102,0-2,0.898-2,2v2.355l-0.311,0.311H3.375c-0.689,0-1.25-0.561-1.25-1.25V9h28.5V26.273z"/>
	</g>
</g>
<g>
</g>
<g>
</g>
<g>
</g>
<g>
</g>
<g>
</g>
<g>
</g>
<g>
</g>
<g>
</g>
<g>
</g>
<g>
</g>
<g>
</g>
<g>
</g>
<g>
</g>
<g>
</g>
<g>
</g>
</svg>
