<?xml version="1.0" encoding="iso-8859-1"?>
<!-- Generator: Adobe Illustrator 16.0.0, SVG Export Plug-In . SVG Version: 6.00 Build 0)  -->
<!DOCTYPE svg PUBLIC "-//W3C//DTD SVG 1.1//EN" "http://www.w3.org/Graphics/SVG/1.1/DTD/svg11.dtd">
<svg version="1.1" id="Capa_1" xmlns="http://www.w3.org/2000/svg" xmlns:xlink="http://www.w3.org/1999/xlink" x="0px" y="0px"
	 width="115.248px" height="115.249px" viewBox="0 0 115.248 115.249" style="enable-background:new 0 0 115.248 115.249;"
	 xml:space="preserve">
<g>
	<path d="M106.282,93.201c0.047-0.225,0.13-0.413,0.13-0.65V76.893C106.412,64.268,96.801,54,84.979,54S63.547,64.268,63.547,76.893
		L63.559,90.6c0,9.28-6.906,16.834-15.386,16.834c-8.479,0-15.379-7.554-15.379-16.834V58.783
		c15.045-1.186,26.97-13.672,26.97-29.022V3.026C59.764,1.357,58.407,0,56.738,0h-9.582c-1.669,0-3.026,1.357-3.026,3.026
		c0,1.67,1.357,3.026,3.026,3.026h6.555v23.708c0,12.788-10.406,23.2-23.2,23.2c-12.797,0-23.2-10.412-23.2-23.2V6.053h7.063
		c1.669,0,3.026-1.356,3.026-3.026C17.401,1.357,16.045,0,14.375,0H4.286c-1.67,0-3.026,1.357-3.026,3.026v26.734
		c0,14.836,11.142,26.995,25.481,28.871V90.6c0,12.626,9.611,22.887,21.432,22.887S69.611,103.226,69.611,90.6L69.6,76.893
		c0-9.286,6.904-16.84,15.38-16.84s15.38,7.554,15.38,16.84V92.55c0,0.096,0.035,0.143,0.047,0.225
		c-5.189,1.041-9.114,5.64-9.114,11.125c0,6.259,5.083,11.349,11.349,11.349c6.254,0,11.349-5.09,11.349-11.349
		C113.989,98.922,110.75,94.726,106.282,93.201z M102.646,109.196c-2.914,0-5.296-2.388-5.296-5.296s2.382-5.297,5.296-5.297
		s5.296,2.389,5.296,5.297S105.561,109.196,102.646,109.196z"/>
</g>
<g>
</g>
<g>
</g>
<g>
</g>
<g>
</g>
<g>
</g>
<g>
</g>
<g>
</g>
<g>
</g>
<g>
</g>
<g>
</g>
<g>
</g>
<g>
</g>
<g>
</g>
<g>
</g>
<g>
</g>
</svg>
