<?xml version="1.0" encoding="iso-8859-1"?>
<!-- Generator: Adobe Illustrator 16.0.0, SVG Export Plug-In . SVG Version: 6.00 Build 0)  -->
<!DOCTYPE svg PUBLIC "-//W3C//DTD SVG 1.1//EN" "http://www.w3.org/Graphics/SVG/1.1/DTD/svg11.dtd">
<svg version="1.1" id="Capa_1" xmlns="http://www.w3.org/2000/svg" xmlns:xlink="http://www.w3.org/1999/xlink" x="0px" y="0px"
	 width="97.042px" height="97.043px" viewBox="0 0 97.042 97.043" style="enable-background:new 0 0 97.042 97.043;"
	 xml:space="preserve">
<g>
	<g>
		<path d="M4.04,30.251c0.83,0.435,1.872,0.607,2.88,0.775c1.223,0.203,2.488,0.414,3.264,1.065c0.597,0.552,0.923,1.31,1.237,2.043
			c0.06,0.14,0.121,0.271,0.182,0.406c-0.576,3.079,0.707,6.34,3.503,8.145c3.688,2.377,8.607,1.316,10.985-2.373
			c2.38-3.688,1.317-8.606-2.371-10.986c-3.688-2.379-8.608-1.316-10.987,2.371c-0.282,0.438-0.513,0.895-0.699,1.36
			c-0.282-0.596-0.634-1.203-1.188-1.715c-1.002-0.845-2.404-1.077-3.761-1.303c-0.974-0.162-1.892-0.314-2.569-0.67
			c-1.306-0.722-1.922-1.552-1.692-2.276c0.207-0.652,1.133-1.24,2.463-1.376v1.267h30.45c0.87,1.428,2.217,3.225,3.43,3.099
			c0.675-0.077,1.154-0.669,1.424-1.759c0.607-2.452,1.088-2.535,1.093-2.536c0.74-0.036,2.147,4.456,2.828,6.609
			c0.042,0.131,0.082,0.258,0.124,0.388c-0.865,0.573-1.465,1.355-1.465,2.489c0,0.983,0.429,1.86,1.101,2.476
			c0.028,0.385,0.087,0.781,0.203,1.186c0.229,0.792,0.603,1.471,1.044,1.988l3.633-1.047c0.079-0.53,0.063-1.124-0.057-1.739
			c3.534-1.365,6.012-5.031,5.85-4.889v5.456c-0.038,0.162-0.081,0.35-0.127,0.551c3.724,0.55,8.371,2.783,9.625,10.273
			c0,0,5.496-0.848,10.854,1.562c0,0-2.133-10.422-2.601-12.362v-6.485c1.288,2.681,2.091,6.522,2.009,12.41
			c-0.025,1.858,1.461,3.387,3.319,3.414c0.017,0,0.032,0,0.048,0c1.838,0,3.34-1.477,3.364-3.32
			c0.224-16.004-5.666-22.101-15.5-26.364c-0.008-0.002-0.017-0.002-0.021-0.004l-2.097,2.199l-2.159-2.175
			c-1.203,0.295-2.379,0.833-3.404,1.565c-0.029,0.016-2.859,2.053-5.059,5.071c-1.738,2.388-3.499,5.816-6.663,6.867
			c-0.347,0.115-0.683,0.249-1.006,0.396c-0.022-0.069-0.043-0.137-0.065-0.206c-1.43-4.523-2.382-7.308-3.779-7.308
			c-0.011,0-0.022,0.001-0.034,0.001c-0.859,0.027-1.467,1.013-2.032,3.295c-0.177,0.714-0.409,0.987-0.567,1.006
			c-0.482,0.052-1.325-0.887-2.128-2.105h1.216v-4.269h-2.203V4.142H7.287v18.574H5.285v2.005c-1.697,0.148-3.052,0.922-3.416,2.071
			C1.686,27.37,1.53,28.863,4.04,30.251z M9.685,6.539H33.54v15.379H9.685V6.539z"/>
		<path d="M92.902,68.555l-14.884-6.013c-0.516-0.207-1.066-0.313-1.621-0.313h-3.793v-0.824c0-0.422-0.109-0.813-0.291-1.166
			l14.032,3.83c0.37,0.102,0.743,0.149,1.11,0.149c1.851,0,3.545-1.229,4.057-3.101c0.611-2.242-0.709-4.557-2.951-5.168
			l-18.484-5.045c-0.367-0.102-0.728-0.149-1.13-0.148l-5.702,0.028c-1.816-14.507-16.083-9.661-16.083-9.661
			c-4.023,1.498-7.182,1.022-8.689,0.617l-3.862-2.49c-0.208-0.134-0.42-0.245-0.634-0.346l-1.585-0.462
			c-2.175-0.279-4.415,0.747-5.888,2.14c0,0-0.664,0.567-1.13,1.326c-0.446,0.726-0.794,1.631-0.794,1.631l-0.011,0.021
			c-0.899,2.603-0.61,6.176,2.136,7.947l14.744,9.509c0.175,0.112,0.354,0.213,0.532,0.305c0,0.027-0.008,0.055-0.008,0.082v0.824
			h-4.192L18.168,48.615c0.097-0.107,0.19-0.221,0.27-0.348c0.72-1.149,0.371-2.667-0.78-3.389l-6.677-4.182
			c-1.121-0.702-2.584-0.384-3.327,0.698c-1.888-0.924-4.214-0.372-5.449,1.406c-1.363,1.965-0.876,4.662,1.089,6.025l30.665,21.285
			c0.724,0.504,1.586,0.771,2.468,0.771h5.717c0.364,0.98,1.302,1.684,2.407,1.684h5.439v20.326h-2.649
			c-1.146,0-2.074,0.93-2.074,2.074c0,1.146,0.929,2.076,2.074,2.076h20.027c1.146,0,2.075-0.93,2.075-2.076
			s-0.93-2.074-2.075-2.074h-2.779V72.568h5.439c1.105,0,2.043-0.701,2.408-1.684h3.119l14.105,5.697
			c0.53,0.214,1.08,0.316,1.618,0.316c1.716,0,3.337-1.024,4.017-2.709C96.19,71.973,95.12,69.449,92.902,68.555z M55.568,52.564
			c-0.63,0.644-1.668,0.871-2.612,1.078c-2.08,0.455-4.194,0.688-6.292,0.688c-10.229,0-17.198-5.471-17.489-5.702
			c-1.002-0.799-1.634-1.941-1.777-3.216c-0.145-1.275,0.216-2.529,1.017-3.533c0.916-1.15,2.286-1.809,3.757-1.809
			c1.074,0,2.131,0.366,2.976,1.033c1.187,0.916,4.263,4.009,11.166,4.009c1.622,0,3.332-0.194,5.084-0.578
			c0.344-0.075,0.693-0.111,1.042-0.111c2.271,0,4.271,1.61,4.754,3.828C57.625,50.764,55.641,52.439,55.568,52.564z"/>
		<path d="M63.947,17.723c4.488,0,8.128-3.638,8.128-8.127c0-1.877-0.65-3.592-1.724-4.965h-2.628V3.398h1.443
			c-0.506-0.425-1.055-0.799-1.653-1.092C66.897,0.95,65.534,0,63.95,0c-1.582,0-2.941,0.947-3.562,2.303
			c-0.601,0.293-1.152,0.669-1.659,1.095h1.65v1.233h-2.836c-1.067,1.373-1.722,3.088-1.722,4.965
			C55.823,14.085,59.459,17.723,63.947,17.723z M63.95,1.715c1.219,0,2.207,0.99,2.207,2.208c0,1.217-0.988,2.207-2.207,2.207
			c-1.217,0-2.207-0.99-2.207-2.207C61.743,2.706,62.733,1.715,63.95,1.715z"/>
		<path d="M54.379,46.061c-0.004-0.002-0.006-0.004-0.01-0.006c-0.758-0.484-1.701-0.681-2.648-0.475
			c-10.815,2.364-16.723-2.847-17.001-3.116c-1.366-1.362-3.577-1.375-4.954-0.021c-1.389,1.361-1.411,3.592-0.049,4.98
			c0.271,0.274,6.188,5.828,16.47,5.828c2.136,0,4.483-0.229,7.039-0.792c1.899-0.414,3.103-2.294,2.687-4.191
			C55.706,47.321,55.135,46.547,54.379,46.061z"/>
		<path d="M16.932,13.264c0.833-1.405,0.367-3.227-1.038-4.058c-0.457-0.271-0.978-0.415-1.507-0.415
			c-1.043,0-2.02,0.557-2.55,1.453c-0.403,0.68-0.518,1.477-0.322,2.243c0.196,0.766,0.68,1.411,1.361,1.814
			c0.457,0.27,0.977,0.413,1.505,0.413l0,0C15.423,14.715,16.4,14.16,16.932,13.264z"/>
		<path d="M30.669,17.408c-0.258-0.198-2.584-1.928-4.949-1.928c-0.331,0-0.653,0.033-0.957,0.101
			c-0.158,0.033-0.31,0.079-0.458,0.132l-0.106,0.057l-0.263,0.199c-2.339-0.903-2.194-2.676-2.115-3.639l0.014-0.168
			c0.005-0.592-0.135-1.298-0.469-2.386c-0.219-0.715-1.008-1.136-1.727-0.918c-0.728,0.222-1.141,0.996-0.919,1.727
			c0.39,1.274,0.365,1.327,0.205,1.671l-0.048,0.105c-0.063,0.141-0.181,0.289-0.359,0.457c-1.62,1.002-2.574,2.283-2.56,3.471
			c0.007,0.612,0.289,1.142,0.755,1.418l4.9,2.902c0.335,0.198,0.702,0.3,1.09,0.3c0.914,0,1.841-1.069,2.363-1.949
			c0.038-0.063,0.065-0.119,0.082-0.175c0.153-0.244,0.279-0.272,0.365-0.291c0.064-0.014,0.139-0.021,0.222-0.021
			c0.871,0,2.197,0.386,2.81,0.71c1.045,0.554,2.077,0.726,2.45,0.176C31.542,18.549,31.421,17.984,30.669,17.408z"/>
	</g>
</g>
<g>
</g>
<g>
</g>
<g>
</g>
<g>
</g>
<g>
</g>
<g>
</g>
<g>
</g>
<g>
</g>
<g>
</g>
<g>
</g>
<g>
</g>
<g>
</g>
<g>
</g>
<g>
</g>
<g>
</g>
</svg>
